<?xml version="1.0" encoding="UTF-8" standalone="no"?>
<!DOCTYPE svg PUBLIC "-//W3C//DTD SVG 1.1//EN" "http://www.w3.org/Graphics/SVG/1.1/DTD/svg11.dtd">
<svg width="100%" height="100%" viewBox="0 0 1708 365" version="1.1" xmlns="http://www.w3.org/2000/svg" xmlns:xlink="http://www.w3.org/1999/xlink" xml:space="preserve" xmlns:serif="http://www.serif.com/" style="fill-rule:evenodd;clip-rule:evenodd;stroke-linejoin:round;stroke-miterlimit:2;">
    <g transform="matrix(1,0,0,1,-3696.442021,-7017.43226)">
        <g transform="matrix(1,0,0,1,0,4100)">
            <g transform="matrix(1,0,0,1,2957.447715,-4049.871644)">
                <g transform="matrix(1,0,0,1,0,4100)">
                    <g transform="matrix(2.765636,0,0,2.765636,-3718.601981,2098.359036)">
                        <g transform="matrix(1,0,0,1,-1.199443,-0.239889)">
                            <path d="M1714.122,384.125C1704.366,395.041 1692.249,403.595 1678.137,410.154C1631.009,395.09 1612.156,351.753 1613.007,288.711C1650.791,276.456 1688.575,274.975 1726.358,284.372C1714.728,292.992 1695.893,309.683 1678.704,327.11C1661.398,309.565 1642.423,292.765 1630.813,284.198C1632.301,298.039 1639.966,314.71 1665.63,340.895C1646.677,361.775 1633.511,380.915 1641.674,385.431C1656.345,373.571 1668.556,363.034 1678.704,353.594C1688.478,362.686 1700.165,372.796 1714.122,384.125ZM1726.57,284.425C1731.536,285.666 1736.501,287.094 1741.467,288.711C1743.352,328.618 1734.799,358.087 1718.084,379.395C1716.857,371.109 1705.931,356.487 1691.777,340.895C1717.301,314.853 1725.022,298.221 1726.57,284.425Z" style="fill:white;"/>
                        </g>
                        <g transform="matrix(-1,0,0,1.12234,3355.008596,-47.124399)">
                            <path d="M1629.638,295.195C1629.709,295.18 1629.779,295.164 1629.85,295.148C1629.77,295.096 1629.692,295.044 1629.613,294.993C1629.621,295.06 1629.63,295.128 1629.638,295.195Z" style="fill:rgb(34,197,94);"/>
                        </g>
                    </g>
                    <g transform="matrix(0.774001,0,0,0.774001,-46.900459,2612.703907)">
                        <g transform="matrix(226.019836,0,0,226.019836,3214.979649,627.097716)">
                        </g>
                        <text x="1538.703px" y="627.098px" style="font-family:'Arial-Black', 'Arial', sans-serif;font-weight:900;font-size:226.02px;fill:white;">ExT<tspan x="2002.33px 2153.084px 2264.659px 2490.679px " y="627.098px 627.098px 627.098px 627.098px ">ermi</tspan>na<tspan x="2863.589px 2963.908px " y="627.098px 627.098px ">to</tspan>r</text>
                    </g>
                </g>
            </g>
        </g>
    </g>
</svg>
